<svg xmlns="http://www.w3.org/2000/svg" viewBox="0 0 89.323 74.222"><defs><style>
                    .ablogo-branco{fill:#fff}
                </style></defs><g id="Group_3650" data-name="Group 3650" transform="translate(95 -117)"><g id="Group_3599" data-name="Group 3599" transform="translate(-95 117)"><g id="Group_3597" data-name="Group 3597"><path id="Path_1282" d="M50.71 16.083h-.04a2.664 2.664 0 0 0-1.946.82 2.59 2.59 0 0 0-.82 1.943v28.047a9.178 9.178 0 0 1-9.18 9.2 9.178 9.178 0 0 1-9.211-9.2V14.784a14.294 14.294 0 0 0-4.329-10.473A14.262 14.262 0 0 0 14.741 0 14.229 14.229 0 0 0 4.329 4.311 14.291 14.291 0 0 0 0 14.784v28.049a2.593 2.593 0 0 0 .817 1.943 2.644 2.644 0 0 0 1.937.82h.04a2.664 2.664 0 0 0 1.946-.82 2.59 2.59 0 0 0 .82-1.943V14.784a8.9 8.9 0 0 1 2.675-6.5 8.871 8.871 0 0 1 6.505-2.7 8.918 8.918 0 0 1 6.536 2.7 8.9 8.9 0 0 1 2.675 6.5v32.11a14.748 14.748 0 0 0 14.772 14.784 14.748 14.748 0 0 0 14.742-14.784V18.845a2.593 2.593 0 0 0-.817-1.943 2.641 2.641 0 0 0-1.938-.819z" class="ablogo-branco" data-name="Path 1282"/><path id="Path_1283" d="M428.623 120.575h-5.561v-9.693a2.716 2.716 0 0 0-.814-1.98 2.677 2.677 0 0 0-1.931-.792h-.09a2.68 2.68 0 0 0-1.932.792 2.71 2.71 0 0 0-.814 1.98v34.343a8.452 8.452 0 0 0 2.5 6.126 8.316 8.316 0 0 0 6.094 2.529h2.543a2.738 2.738 0 0 0 1.977-.814 2.547 2.547 0 0 0 .833-1.931v-.061a2.643 2.643 0 0 0-.833-1.961 2.732 2.732 0 0 0-1.977-.814h-2.471a3.018 3.018 0 0 1-2.193-.875 2.845 2.845 0 0 1-.9-2.112v-19.156h5.561a2.738 2.738 0 0 0 1.977-.814 2.547 2.547 0 0 0 .833-1.932v-.061a2.643 2.643 0 0 0-.833-1.961 2.74 2.74 0 0 0-1.969-.813z" class="ablogo-branco" data-name="Path 1283" transform="translate(-355.784 -92.133)"/><path id="Path_1284" d="M566.1 225.72h-.061a2.66 2.66 0 0 0-1.961.823 2.719 2.719 0 0 0-.814 1.982v22.806a2.62 2.62 0 0 0 .814 1.952 2.655 2.655 0 0 0 1.961.823h.061a2.566 2.566 0 0 0 1.931-.823 2.615 2.615 0 0 0 .814-1.952v-22.8a2.717 2.717 0 0 0-.814-1.982 2.564 2.564 0 0 0-1.931-.829z" class="ablogo-branco" data-name="Path 1284" transform="translate(-480.02 -192.363)"/></g><path id="Path_1285" d="M85.434 166l-6.618-3.686a.584.584 0 0 0-.956.528v7.386a.584.584 0 0 0 .956.528l6.607-3.631a.61.61 0 0 0 .01-1.125z" class="ablogo-branco" data-name="Path 1285" transform="translate(-66.354 -138.216)"/><path id="Path_1286" d="M565.5 169.745h-4.688a.949.949 0 0 1-.949-.949v-4.688a.949.949 0 0 1 .949-.949h4.688a.949.949 0 0 1 .949.949v4.692a.948.948 0 0 1-.949.945z" class="ablogo-branco" data-name="Path 1286" transform="translate(-477.123 -139.048)"/><g id="Group_3598" data-name="Group 3598" transform="translate(.112 66.379)"><path id="Path_1287" d="M1.252 449.17a.468.468 0 0 1 .334.136.46.46 0 0 1 .14.34v2.381a2.744 2.744 0 0 1 1.884-.715 2.747 2.747 0 0 1 2.016.835 2.851 2.851 0 0 1 0 4.032 2.745 2.745 0 0 1-2.016.835 2.735 2.735 0 0 1-2.01-.831 2.745 2.745 0 0 1-.841-2.006v-4.531a.472.472 0 0 1 .474-.476zm2.36 3.118a1.886 1.886 0 1 0 0 3.773 1.808 1.808 0 0 0 1.332-.553 1.886 1.886 0 0 0 0-2.668 1.8 1.8 0 0 0-1.332-.552z" class="ablogo-branco" data-name="Path 1287" transform="translate(-.76 -449.17)"/><path id="Path_1288" d="M149.741 463.66a2.85 2.85 0 1 1-2.016.835 2.747 2.747 0 0 1 2.016-.835zm0 .977a1.887 1.887 0 1 0 1.332.553 1.8 1.8 0 0 0-1.332-.553z" class="ablogo-branco" data-name="Path 1288" transform="translate(-125.295 -461.519)"/><path id="Path_1289" d="M295.861 463.66a2.85 2.85 0 1 1-2.016.835 2.748 2.748 0 0 1 2.016-.835zm0 .977a1.887 1.887 0 1 0 1.331.553 1.822 1.822 0 0 0-1.331-.553z" class="ablogo-branco" data-name="Path 1289" transform="translate(-249.821 -461.519)"/><path id="Path_1290" d="M440.689 449.17a.465.465 0 0 1 .334.136.46.46 0 0 1 .14.34v3.774h.355a1.843 1.843 0 0 0 1.268-.486 1.824 1.824 0 0 0 .606-1.2.486.486 0 0 1 .476-.429h.016a.452.452 0 0 1 .35.157.459.459 0 0 1 .12.371 2.72 2.72 0 0 1-1.128 2 2.867 2.867 0 0 1 1.373 2.438v.266a.446.446 0 0 1-.14.334.455.455 0 0 1-.334.14h-.016a.458.458 0 0 1-.334-.14.443.443 0 0 1-.14-.334v-.266a1.879 1.879 0 0 0-1.884-1.874h-.585v2.14a.446.446 0 0 1-.14.334.455.455 0 0 1-.334.14h-.016a.458.458 0 0 1-.334-.14.443.443 0 0 1-.14-.334v-6.891a.472.472 0 0 1 .474-.476z" class="ablogo-branco" data-name="Path 1290" transform="translate(-375.258 -449.17)"/><path id="Path_1291" d="M578.821 464.616a.676.676 0 0 0-.5.2.685.685 0 0 0-.2.5.653.653 0 0 0 .386.61 7.92 7.92 0 0 0 .9.272 2.025 2.025 0 0 1 .856.429 1.391 1.391 0 0 1 .386 1.06 1.657 1.657 0 0 1-1.664 1.666h-1.362a.458.458 0 0 1-.334-.14.443.443 0 0 1-.141-.334v-.01a.469.469 0 0 1 .141-.34.455.455 0 0 1 .334-.14h1.414a.7.7 0 0 0 .7-.7.61.61 0 0 0-.386-.575q-.089-.042-.9-.272a2.088 2.088 0 0 1-.856-.439 1.459 1.459 0 0 1-.386-1.086 1.665 1.665 0 0 1 1.664-1.666h.961a.466.466 0 0 1 .34.141.461.461 0 0 1 .14.34v.01a.447.447 0 0 1-.14.334.461.461 0 0 1-.34.14h-1.012z" class="ablogo-branco" data-name="Path 1291" transform="translate(-491.97 -461.51)"/></g></g></g></svg>