<svg xmlns="http://www.w3.org/2000/svg" viewBox="0 0 22.489 22.494"><defs><style>
                                .cls-1 {
                                    fill: #fff
                                }
                            </style></defs><path id="cart_x5F_round_1_" d="M4.5 4.5a2.256 2.256 0 0 0-2.251 2.247v9.2a3.374 3.374 0 1 0 2.249 0v-.2h11.246v.2a3.374 3.374 0 1 0 2.249 0V3.374a1.128 1.128 0 0 1 1.125-1.125h2.249a1.128 1.128 0 0 0 1.125-1.125A1.128 1.128 0 0 0 21.367 0h-3.374a2.256 2.256 0 0 0-2.249 2.249V4.5zM3.373 20.242A1.125 1.125 0 1 1 4.5 19.118a1.128 1.128 0 0 1-1.127 1.124zM4.5 13.495V7.872a1.128 1.128 0 0 1 1.123-1.125h10.121v6.747zm12.37 6.747a1.125 1.125 0 1 1 1.125-1.125 1.128 1.128 0 0 1-1.127 1.125z" class="cls-1" transform="translate(-.002)"/></svg>