<svg xmlns="http://www.w3.org/2000/svg" viewBox="0 0 22.49 18"><defs><style>
                                .cls-1 {
                                    fill: #fff
                                }
                            </style></defs><path id="love_1_" d="M11.683 2.6a.576.576 0 0 1-.439.2.538.538 0 0 1-.427-.2C6.825-2.271-.213.157 0 6.161c.169 4.779 3.553 7.14 7.533 10.49a5.774 5.774 0 0 0 7.432-.011c3.935-3.35 7.276-5.7 7.512-10.34.303-6.131-6.825-8.594-10.794-3.7zm1.8 12.413a3.412 3.412 0 0 1-2.226.81A3.506 3.506 0 0 1 9 14.988c-4.037-3.4-6.611-5.206-6.746-8.905C2.1 2.159 6.409.731 9.04 3.946a2.814 2.814 0 0 0 2.193 1.024 2.87 2.87 0 0 0 2.215-1.034C16.023.764 20.43 2.114 20.228 6.2c-.169 3.627-2.845 5.493-6.746 8.81z" class="cls-1" transform="translate(.004 -.001)"/></svg>