<svg xmlns="http://www.w3.org/2000/svg" viewBox="0 0 16.281 18">
<defs><style>
.cls-1{
    fill: #fff
    }
</style>
</defs>
<path id="question_2_" d="M22.639 2.2zm-16.281 4A1.336 1.336 0 0 1 7.69 4.865h7.61a2.019 2.019 0 0 1 2.01 2.012v3.318a2.673 2.673 0 0 1-2.665 2.665H12.66a.682.682 0 0 0-.679.679v1.332a1.332 1.332 0 0 1-2.665 0v-2.3a2.377 2.377 0 0 1 2.372-2.372h1.332a1.332 1.332 0 1 0 0-2.665H7.69A1.336 1.336 0 0 1 6.358 6.2zm5.329 12.671a1.332 1.332 0 1 1-1.332-1.332 1.336 1.336 0 0 1 1.332 1.329z" class="cls-1" transform="translate(-6.358 -2.2)"/></svg>