<svg xmlns="http://www.w3.org/2000/svg" viewBox="0 0 21.178 20.996"><g id="headphones" transform="translate(0.5 -1.6)"><path id="Caminho_1517" data-name="Caminho 1517" d="M20.178,12.189A10.09,10.09,0,0,0,2.954,5.054,10.026,10.026,0,0,0,0,12.189v4.777a4.9,4.9,0,0,0,4.9,4.9.581.581,0,0,0,.583-.583V12.655a.581.581,0,0,0-.583-.583A4.881,4.881,0,0,0,1.166,13.8V12.189a8.923,8.923,0,1,1,17.845,0,.536.536,0,0,0,.013.117.536.536,0,0,0-.013.117v1.611a4.881,4.881,0,0,0-3.731-1.728.581.581,0,0,0-.583.583v8.625a.581.581,0,0,0,.583.583,4.9,4.9,0,0,0,4.9-4.9V12.422a.536.536,0,0,0-.013-.117A.536.536,0,0,0,20.178,12.189ZM4.31,13.281v7.368a3.73,3.73,0,0,1,0-7.368Zm11.557,7.6V13.515a3.73,3.73,0,0,1,0,7.368Z" transform="translate(0 0)" fill="currentColor" stroke="#fff" stroke-width="1"></path></g></svg>