<svg xmlns="http://www.w3.org/2000/svg" viewBox="0 0 17.178 17.014"><defs><style>
                                .cls-1 {
                                    fill: #fff
                                }
                            </style></defs><g id="icon" transform="translate(0 -2.356)"><g id="Grupo_3862" data-name="Grupo 3862" transform="translate(0 2.356)"><path id="Caminho_1363" d="M17.086 5.025a.664.664 0 0 0-.439-.311l-9.73-2.346a.659.659 0 0 0-.748.421L2.46 12.212l1.238.451L7.213 3.7l8.454 2.157c-.528 1.637-1.784 5.053-2.989 8.234-1.05 2.775-1.654 3.726-2.8 3.92-2.347.329-2.3-2.663-2.3-2.663L.072 12.32c-.532 3.38 2.062 4.188 2.062 4.188L7.622 19a4.254 4.254 0 0 0 1.789.367c2.512-.059 3.394-1.883 4.5-4.8 1.6-4.223 3.219-8.954 3.235-9a.652.652 0 0 0-.06-.542z" class="cls-1" data-name="Caminho 1363" transform="translate(0 -2.356)"/><path id="Caminho_1364" d="M271.385 128.145a.657.657 0 0 0 .809-.461.66.66 0 0 0-.462-.81l-2.856-.881a.659.659 0 1 0-.347 1.271z" class="cls-1" data-name="Caminho 1364" transform="translate(-258.735 -121.676)"/><path id="Caminho_1365" d="M234.845 203.451a.66.66 0 0 0 .416.834l2.839 1.015a.653.653 0 0 0 .205.034.659.659 0 0 0 .212-1.284l-2.84-1.014a.66.66 0 0 0-.832.415z" class="cls-1" data-name="Caminho 1365" transform="translate(-226.657 -196.034)"/><path id="Caminho_1366" d="M204.55 282.239a.658.658 0 1 0-.41 1.251l2.847 1.011a.635.635 0 0 0 .206.033.659.659 0 0 0 .2-1.285z" class="cls-1" data-name="Caminho 1366" transform="translate(-196.611 -272.487)"/><path id="Caminho_1367" d="M205.231 104.517a.711.711 0 1 1-.731.71.721.721 0 0 1 .731-.71z" class="cls-1" data-name="Caminho 1367" transform="translate(-197.398 -100.969)"/><path id="Caminho_1368" d="M175.462 180.572a.71.71 0 1 1-.731.71.721.721 0 0 1 .731-.71z" class="cls-1" data-name="Caminho 1368" transform="translate(-168.663 -174.383)"/><path id="Caminho_1369" d="M143.712 259.039a.711.711 0 1 1-.731.711.721.721 0 0 1 .731-.711z" class="cls-1" data-name="Caminho 1369" transform="translate(-138.016 -250.125)"/></g></g></svg>