<svg xmlns="http://www.w3.org/2000/svg" viewBox="0 0 17.917 18"><defs><style>
                                .cls-1 {
                                    fill: #fff
                                }
                            </style></defs><path id="profile_1_" d="M12.338 9.6a5.4 5.4 0 1 0-6.768 0A8.6 8.6 0 0 0 0 17a.916.916 0 0 0 .9 1 .89.89 0 0 0 .891-.8 6.855 6.855 0 0 1 7.163-6.4 6.855 6.855 0 0 1 7.163 6.4.89.89 0 0 0 .891.8.911.911 0 0 0 .9-1 8.569 8.569 0 0 0-5.57-7.4zM8.954 9a3.6 3.6 0 1 1 3.6-3.6 3.6 3.6 0 0 1-3.6 3.6z" class="cls-1" transform="translate(.004 .001)"/></svg>