<svg xmlns="http://www.w3.org/2000/svg" viewBox="0 0 21.498 17.549"><path id="União_2" data-name="União 2" d="M2112.345,18397.039a4.648,4.648,0,0,0-9-1.012,6.1,6.1,0,0,1,.148.883.582.582,0,0,1-.577.641.574.574,0,0,1-.573-.512,4.625,4.625,0,0,0-9.193,0,.568.568,0,0,1-.573.512.587.587,0,0,1-.577-.641,5.522,5.522,0,0,1,3.574-4.748,3.466,3.466,0,0,1,2.59-6.141,3.428,3.428,0,0,1,1.514.568,5.706,5.706,0,0,1,.9-.424,3.465,3.465,0,0,1,2.175-6.164,3.961,3.961,0,0,1,.416.023,3.466,3.466,0,0,1,1.755,6.141,5.063,5.063,0,0,1,.9.426,3.449,3.449,0,0,1,1.93-.588,2.964,2.964,0,0,1,.416.023,3.461,3.461,0,0,1,1.759,6.135,5.5,5.5,0,0,1,3.574,4.748.6.6,0,0,1-.143.447.579.579,0,0,1-1.007-.318Zm-11.169-8.113a3.467,3.467,0,0,1-1.256,3.236,2.871,2.871,0,0,0,5.656,0,3.456,3.456,0,0,1-.623-4.74,4.962,4.962,0,0,0-2.2-.49,5.018,5.018,0,0,0-2.2.486A3.378,3.378,0,0,1,2101.176,18388.926Zm4.262.541a2.311,2.311,0,1,0,2.309-2.309A2.31,2.31,0,0,0,2105.438,18389.467Zm-10,0a2.311,2.311,0,1,0,2.313-2.312A2.311,2.311,0,0,0,2095.437,18389.467Zm5-6a2.311,2.311,0,1,0,2.313-2.309A2.314,2.314,0,0,0,2100.437,18383.465Z" transform="translate(-2092 -18380.002)" fill="#fff"/></svg>