<svg xmlns="http://www.w3.org/2000/svg" viewBox="0 0 38.202 23.562"><defs><style>
                                            .cardamex1{fill:url(#radial-gradient)}
                                            .cardamex2{fill:#fff}
                                        </style><radialGradient id="radial-gradient" cx="6.828" cy="5.015" r="59.571" gradientTransform="matrix(.617 0 0 .617 2.617 1.922)" gradientUnits="userSpaceOnUse"><stop offset="0" stop-color="#7fd5f7"/><stop offset="1" stop-color="#0078bf"/></radialGradient></defs><g id="Group_3673" data-name="Group 3673"><path id="Path_1362" d="M36.18 23.562H2.022A2.028 2.028 0 0 1 0 21.54V2.022A2.027 2.027 0 0 1 2.022 0H36.18a2.028 2.028 0 0 1 2.02 2.022v19.519a2.028 2.028 0 0 1-2.02 2.021z" class="cardamex1" data-name="Path 1362"/><g id="Group_3672" data-name="Group 3672" transform="translate(7.225 8.555)"><path id="Path_1363" d="M285.75 132.58v.84h2.425v.943h-2.425v.92h2.716l1.261-1.356-1.208-1.347z" class="cardamex2" data-name="Path 1363" transform="translate(-270.494 -130.704)"/><path id="Path_1364" d="M135.41 132.252h1.508l-.756-1.842z" class="cardamex2" data-name="Path 1364" transform="translate(-131.982 -128.705)"/><path id="Path_1365" d="M115.592 108.74h-2.874l-.912.987-.854-.987h-8.294l-.719 1.665-.739-1.665h-3.378v.761l-.371-.761h-2.88l-2.731 6.445h3.281l.426-1.027h.953l.424 1.027h3.713v-.785l.331.788h1.932l.331-.8v.8h7.613l.939-1 .885 1h2.928v-1.126l-1.843-2.086 1.843-1.973zm-11.565 5.541v-3.619l-1.6 3.619h-.97l-1.606-3.622v3.622H97.6l-.424-1.031h-2.3l-.429 1.031h-1.2l1.978-4.62h1.641l1.879 4.375v-4.376h1.8l1.445 3.134 1.328-3.134h1.839v4.62h-1.132zm8.468-2.3l2.034 2.3h-1.385l-1.36-1.53-1.413 1.53H106v-4.62h4.442l1.359 1.515 1.405-1.515h1.459z" class="cardamex2" data-name="Path 1365" transform="translate(-91.84 -108.74)"/></g></g></svg>