<svg xmlns="http://www.w3.org/2000/svg" viewBox="0 0 38.202 23.562"><defs><style>
                                            .cardelo1{fill:#231f20}
                                            .cardelo2{fill:#fbc707}
                                            .cardelo3{fill:#38a7e4}
                                            .cardelo4{fill:#ef3120}
                                            .cardelo5{fill:#ffffff}
                                        </style></defs><g id="Group_3676" data-name="Group 3676"><path id="Path_1362" d="M36.18 23.562H2.022A2.028 2.028 0 0 1 0 21.54V2.022A2.027 2.027 0 0 1 2.022 0H36.18a2.028 2.028 0 0 1 2.02 2.022v19.519a2.028 2.028 0 0 1-2.02 2.021z" class="cardelo1" data-name="Path 1362"/><g id="Group_3677" data-name="Group 3677" transform="translate(6.713 7.046)"><g id="g56" transform="translate(3.283)"><path id="path58" d="M-3.993-13.517a2.82 2.82 0 0 1 .9-.145A2.828 2.828 0 0 1-.326-11.4l1.938-.4A4.807 4.807 0 0 0-3.1-15.64a4.792 4.792 0 0 0-1.524.247z" class="cardelo2" transform="translate(4.62 15.64)"/></g><g id="g60" transform="translate(0 1.207)"><path id="path62" d="M-10.326-45.828l1.311-1.482a2.821 2.821 0 0 1-.954-2.118 2.82 2.82 0 0 1 .953-2.117l-1.311-1.482a4.794 4.794 0 0 0-1.621 3.6 4.8 4.8 0 0 0 1.622 3.6" class="cardelo3" transform="translate(11.948 53.027)"/></g><g id="g64" transform="translate(3.281 5.373)"><path id="path66" d="M-27.345 0a2.827 2.827 0 0 1-2.77 2.26 2.806 2.806 0 0 1-.9-.146l-.628 1.877a4.8 4.8 0 0 0 1.526.247A4.806 4.806 0 0 0-25.406.4z" class="cardelo4" transform="translate(31.64)"/></g><g id="g68" transform="translate(10.764 2.525)"><path id="path70" d="M-27.5-24.675l-.055-.038a1.552 1.552 0 0 1-.719.6 1.4 1.4 0 0 1-1.542-.155l-.036.055-.676 1.01a2.9 2.9 0 0 0 .537.294 2.8 2.8 0 0 0 2.26-.032 2.78 2.78 0 0 0 1.262-1.05zm-2.108-2.491a1.46 1.46 0 0 0-.885 1.55l2.66-1.145a1.412 1.412 0 0 0-1.776-.4m-1.766 3.076a3.405 3.405 0 0 1-.2-.389 2.853 2.853 0 0 1-.062-2.158 2.848 2.848 0 0 1 1.533-1.674 2.952 2.952 0 0 1 2.711.2 2.9 2.9 0 0 1 1.21 1.46c.037.086.069.179.1.257z" class="cardelo5" transform="translate(31.822 28.55)"/></g><g id="g72" transform="translate(17.103 1.278)"><path id="path74" d="M-7.943 0v5.615l.873.354-.5 1.157-.963-.4a1.1 1.1 0 0 1-.467-.4 1.259 1.259 0 0 1-.186-.7V0z" class="cardelo5" transform="translate(9.191)"/></g><g id="g76" transform="translate(19.271 3.266)"><path id="path78" d="M-8.534-13.982a1.588 1.588 0 0 1 .546-1.2l-.9-1a2.926 2.926 0 0 0-.99 2.2 2.923 2.923 0 0 0 .988 2.2l.894-1a1.589 1.589 0 0 1-.542-1.2" class="cardelo5" transform="translate(9.875 16.179)"/></g><g id="g80" transform="translate(21.27 5.787)"><path id="path82" d="M-5.934-8.079a1.6 1.6 0 0 1-.5-.083l-.428 1.272a2.934 2.934 0 0 0 .931.152A2.936 2.936 0 0 0-3.059-9.08l-1.315-.268a1.592 1.592 0 0 1-1.56 1.269" class="cardelo5" transform="translate(6.867 9.348)"/></g><g id="g84" transform="translate(21.276 2.53)"><path id="path86" d="M-5.922 0a2.933 2.933 0 0 0-.93.15l.424 1.273a1.611 1.611 0 0 1 .5-.082 1.592 1.592 0 0 1 1.564 1.276l1.315-.267A2.934 2.934 0 0 0-5.922 0" class="cardelo5" transform="translate(6.852)"/></g></g></g></svg>