<svg xmlns="http://www.w3.org/2000/svg" viewBox="0 0 38.202 23.562"><defs><style>
                                            .cardhiper1,.cardhiper2{fill:#7f181a}
                                            .cardhiper2,.cardhiper3{fill-rule:evenodd}
                                            .cardhiper3{fill:#fff}
                                        </style></defs><g id="Group_3678" data-name="Group 3678"><path id="Path_1362" d="M36.18 23.562H2.022A2.028 2.028 0 0 1 0 21.54V2.022A2.027 2.027 0 0 1 2.022 0H36.18a2.028 2.028 0 0 1 2.02 2.022v19.519a2.028 2.028 0 0 1-2.02 2.021z" class="cardhiper1" data-name="Path 1362"/><g id="Group_3679" data-name="Group 3679" transform="translate(2.281 5.037)"><path id="fundo_1_" d="M8.947 0H5.569C4.077.07 2.857.672 2.5 1.912c-.184.647-.285 1.356-.429 2.027C1.346 7.346.7 10.846 0 14.186h26.3c2.033 0 3.429-.429 3.806-2.043.175-.75.343-1.6.511-2.422C31.267 6.51 31.921 3.3 32.591 0z" class="cardhiper2"/><path id="hipercard_1_" d="M50.626 66.754c.141-.1.323-.541.115-.725a.392.392 0 0 0-.329-.049.4.4 0 0 0-.28.148c-.09.122-.171.489-.033.626a.512.512 0 0 0 .527 0zm-2.01-.725c-.1.657-.215 1.3-.329 1.944-.734.008-1.484.036-2.191-.017.134-.63.23-1.3.363-1.928h-.791c-.283 1.606-.541 3.238-.857 4.811h.807c.127-.807.245-1.622.412-2.389a19.53 19.53 0 0 1 2.175.017c-.136.8-.3 1.566-.429 2.373h.807c.259-1.63.533-3.246.857-4.811h-.824zm11.418 1.384a1.088 1.088 0 0 0-1.351.576c.052-.178.074-.388.115-.576h-.626c-.153 1.187-.379 2.3-.593 3.427h.709a13.413 13.413 0 0 1 .363-2.208.988.988 0 0 1 1.3-.708c.01-.189.064-.333.083-.511zm.4 2.62a1.718 1.718 0 0 1-.066-.659 2.3 2.3 0 0 1 .478-1.318 1.738 1.738 0 0 1 1.681-.1c.018-.2.058-.371.083-.56a2.678 2.678 0 0 0-2.34.445 2.814 2.814 0 0 0-.56 2.34c.255.834 1.4.88 2.323.56.041-.168.063-.354.1-.527-.511.263-1.478.399-1.703-.181zm7.959-2.6a1.083 1.083 0 0 0-1.351.527c.058-.162.061-.378.115-.544h-.626q-.253 1.765-.61 3.427h.725a7.744 7.744 0 0 1 .165-1.236c.152-.951.374-1.994 1.483-1.681.032-.163.047-.345.094-.496zm-18.493-.02c-.019 0-.018.026-.017.049a48.384 48.384 0 0 1-.593 3.378H50c.17-1.175.365-2.326.61-3.427zm6.228-.066a1.851 1.851 0 0 0-1.252.511 2.86 2.86 0 0 0-.593 2.076c.128 1.141 1.549 1.1 2.686.824.019-.2.068-.372.1-.56a2.259 2.259 0 0 1-1.763.115c-.363-.23-.366-.812-.247-1.318a40.89 40.89 0 0 1 2.323 0 2.436 2.436 0 0 0 .066-1.1c-.161-.472-.735-.595-1.319-.548zM56.8 68.6h-1.659a.982.982 0 0 1 .939-.824c.511-.02.876.187.72.824zm-3.361-1.186a1.87 1.87 0 0 0-1.647.3c0 .012-.008.013-.017.013l.017-.013c.005-.11.044-.187.049-.3h-.61c-.254 1.69-.555 3.333-.873 4.959h.708c.1-.633.17-1.3.313-1.895.162.624 1.218.5 1.664.264.925-.498 1.635-2.866.401-3.329zm-.56 2.784c-.379.4-1.311.4-1.384-.28a3.34 3.34 0 0 1 .132-.906c.055-.308.094-.6.148-.873.374-.456 1.47-.511 1.581.247a2.515 2.515 0 0 1-.472 1.814zm18.14-4.267a15.867 15.867 0 0 1-.247 1.532c-1.738-.55-2.8.729-2.785 2.307a1.244 1.244 0 0 0 .247.824 1.6 1.6 0 0 0 1.747.148 1.237 1.237 0 0 0 .247-.247c.046-.058.118-.208.132-.165a3.739 3.739 0 0 0-.066.511h.642a44.963 44.963 0 0 1 .791-4.91zm-1.581 4.531c-.477.01-.714-.285-.725-.774-.019-.857.357-1.809 1.12-1.895a1.858 1.858 0 0 1 .873.132c-.234.961-.148 2.512-1.263 2.536zm-6.108-3.049c-.035.2-.088.373-.132.56.418-.1 1.72-.426 1.845.132a.974.974 0 0 1-.083.527c-1.177-.111-2.137.084-2.389.923a1.041 1.041 0 0 0 .379 1.269 1.577 1.577 0 0 0 1.829-.511 2.166 2.166 0 0 0-.049.527h.61a9.47 9.47 0 0 1 .181-1.581 6.225 6.225 0 0 0 .2-1.285c-.054-.905-1.552-.585-2.391-.561zm1.153 2.768c-.365.358-1.39.459-1.285-.4.087-.709.86-.86 1.7-.758a2.111 2.111 0 0 1-.415 1.158z" class="cardhiper3" transform="translate(-41.943 -61.712)"/></g></g></svg>