<svg xmlns="http://www.w3.org/2000/svg" id="cart-master" data-name="Group 3669" viewBox="0 0 38.202 23.562"><defs><style>
                                            .cart-master1{fill:#fff}
                                            .cart-master2,.cart-master4{fill:#e6b73a}
                                            .cart-master3,.cart-master5{fill:#be0024}
                                            .cart-master4{opacity:.7}
                                            .cart-master5{opacity:.5}
                                        </style></defs><path id="Path_1352" d="M36.18 23.562H2.022A2.028 2.028 0 0 1 0 21.54V2.022A2.027 2.027 0 0 1 2.022 0H36.18a2.028 2.028 0 0 1 2.02 2.022v19.519a2.028 2.028 0 0 1-2.02 2.021z" class="cart-master1" data-name="Path 1352"/><path id="Path_1353" d="M252.517 81.2l-.022-.3-.037-.29-.051-.286-.065-.281-.079-.275-.092-.271-.1-.264-.118-.258-.127-.251-.142-.242-.151-.238-.163-.228-.173-.218-.183-.212-.194-.2-.2-.193-.212-.183-.22-.173-.228-.163-.238-.152-.244-.139-.252-.128-.259-.117-.266-.1-.271-.092-.278-.079-.281-.065-.289-.051-.291-.037-.3-.022-.3-.008-.3.008-.3.022-.291.037-.287.051-.281.065-.277.079-.269.092-.266.1-.257.117-.249.128-.244.139-.236.152-.228.163-.22.173-.2.171.013.012.2.193.192.2.183.212.173.218.161.228.152.238.139.242.13.251.116.258.1.264.09.271.079.275.065.281.051.286.038.29.021.3.008.3-.008.3-.021.3-.038.291-.051.289-.065.281-.079.278-.09.271-.1.266-.116.259-.13.252-.139.244-.152.238-.161.228-.173.22-.183.212-.192.2-.2.194-.013.013.2.171.22.172.228.164.236.151.244.142.249.127.257.118.266.1.269.092.277.079.281.065.287.051.291.037.3.021.3.008.3-.008.3-.021.291-.037.289-.051.281-.065.278-.079.271-.092.266-.1.259-.118.252-.127.244-.142.238-.151.228-.164.212-.179.212-.183.2-.194.194-.2.183-.212.173-.22.163-.228.151-.238.142-.244.127-.252.118-.259.1-.266.092-.271.079-.278.065-.281.051-.289.037-.291.022-.3.007-.3z" class="cart-master2" data-name="Path 1353" transform="translate(-223.689 -69.726)"/><path id="Path_1354" d="M128.569 85.623l-.193-.2-.183-.212-.173-.22-.161-.228-.151-.238-.14-.244-.129-.252-.116-.259-.1-.266-.09-.271-.079-.278-.065-.281-.051-.289-.037-.291-.021-.3-.009-.3.009-.3.021-.3.037-.29.051-.286.065-.281.079-.275.09-.271.1-.264.116-.258.129-.251.14-.242.151-.238.161-.228.173-.218.183-.212.193-.2.2-.193.014-.012-.2-.171-.22-.173-.228-.163-.235-.152-.244-.139-.249-.128-.258-.117-.265-.1-.269-.092-.278-.079-.281-.065-.287-.051-.29-.037-.3-.022-.3-.008-.3.008-.3.022-.29.037-.29.051-.281.065-.277.079-.271.092-.265.1-.26.117-.252.128-.243.139-.238.152-.228.163-.219.173-.212.183-.2.193-.2.2-.183.212-.173.218-.163.228-.152.238-.142.242-.127.251-.118.258-.1.264-.093.271-.079.275-.065.281-.051.286-.037.29-.022.3-.008.3.008.3.022.3.037.291.051.289.065.281.079.278.093.271.1.266.118.259.127.252.142.244.152.238.163.228.173.22.183.212.2.2.2.194.212.183.219.172.228.164.238.151.243.142.252.127.26.118.265.1.271.092.277.079.281.065.29.051.29.037.3.021.3.008.3-.008.3-.021.29-.037.287-.051.281-.065.278-.079.269-.092.265-.1.258-.118.249-.127.244-.142.235-.151.228-.164.22-.172.2-.171-.014-.013z" class="cart-master3" data-name="Path 1354" transform="translate(-109.684 -69.726)"/><path id="Path_1355" d="M220.535 103.212l.192-.2.183-.212.173-.22.161-.228.152-.238.139-.244.13-.252.116-.259.1-.266.09-.271.079-.278.065-.281.051-.289.038-.291.021-.3.008-.3-.008-.3-.021-.3-.038-.29-.051-.286-.065-.281-.079-.275-.09-.271-.1-.264-.116-.258-.13-.251-.139-.242-.152-.238-.161-.228-.173-.218-.183-.212-.192-.2-.2-.193-.013-.012-.014.012-.2.193-.193.2-.183.212-.173.218-.161.228-.151.238-.14.242-.129.251-.116.258-.1.264-.09.271-.079.275-.065.281-.051.286-.037.29-.021.3-.009.3.009.3.021.3.037.291.051.289.065.281.079.278.09.271.1.266.116.259.129.252.14.244.151.238.161.228.173.22.183.212.193.2.2.194.014.013.013-.013z" class="cart-master4" data-name="Path 1355" transform="translate(-201.218 -87.314)"/><path id="Path_1356" d="M220.535 103.212l.192-.2.183-.212.173-.22.161-.228.152-.238.139-.244.13-.252.116-.259.1-.266.09-.271.079-.278.065-.281.051-.289.038-.291.021-.3.008-.3-.008-.3-.021-.3-.038-.29-.051-.286-.065-.281-.079-.275-.09-.271-.1-.264-.116-.258-.13-.251-.139-.242-.152-.238-.161-.228-.173-.218-.183-.212-.192-.2-.2-.193-.013-.012-.014.012-.2.193-.193.2-.183.212-.173.218-.161.228-.151.238-.14.242-.129.251-.116.258-.1.264-.09.271-.079.275-.065.281-.051.286-.037.29-.021.3-.009.3.009.3.021.3.037.291.051.289.065.281.079.278.09.271.1.266.116.259.129.252.14.244.151.238.161.228.173.22.183.212.193.2.2.194.014.013.013-.013z" class="cart-master5" data-name="Path 1356" transform="translate(-201.218 -87.314)"/></svg>