<svg xmlns="http://www.w3.org/2000/svg" viewBox="0 0 38.202 23.562"><defs><style>
                                            .cart-visa1{fill:#2a75ad}
                                            .cart-visa2{fill:#fff;fill-rule:evenodd}
                                        </style></defs><g id="Group_3674" data-name="Group 3674"><path id="Path_1362" d="M36.18 23.562H2.022A2.028 2.028 0 0 1 0 21.54V2.022A2.027 2.027 0 0 1 2.022 0H36.18a2.028 2.028 0 0 1 2.02 2.022v19.519a2.028 2.028 0 0 1-2.02 2.021z" class="cart-visa1" data-name="Path 1362"/><g id="Group_3675" data-name="Group 3675" transform="translate(9.332 8.555)"><path id="Path_1358" d="M167.18 116.6l1.863-6.142h1.657l-1.862 6.142z" class="cart-visa2" data-name="Path 1358" transform="translate(-161.161 -110.325)"/><path id="Path_1359" d="M95.955 110.48l-1.495 2.6a6.339 6.339 0 0 0-.71 1.458h-.023c.027-.546-.05-1.216-.057-1.6l-.165-2.465h-2.8l-.028.165a1.161 1.161 0 0 1 1.263 1.1l.544 4.876h1.722l3.482-6.141z" class="cart-visa2" data-name="Path 1359" transform="translate(-90.68 -110.343)"/><path id="Path_1360" d="M271.08 116.74l-.046-.914h-2.075l-.426.916h-1.8L270 110.61h2.214l.555 6.13zm-.191-3.624c-.018-.454-.033-1.07 0-1.443h-.024c-.1.305-.535 1.221-.727 1.671l-.618 1.346h1.457l-.085-1.574z" class="cart-visa2" data-name="Path 1360" transform="translate(-252.88 -110.463)"/><path id="Path_1361" d="M204.8 115.191a4.651 4.651 0 0 1-2.508-.7l.791-1.21a3.061 3.061 0 0 0 1.793.6.772.772 0 0 0 .728-.351c.231-.4-.053-.614-.7-.981l-.321-.209c-.962-.658-1.379-1.282-.926-2.373a2.3 2.3 0 0 1 2.316-1.226 3.726 3.726 0 0 1 2.161.744l-.91 1.068a2.022 2.022 0 0 0-1.289-.565.774.774 0 0 0-.709.318c-.173.343.057.577.562.891l.382.242c1.168.737 1.447 1.51 1.153 2.232a2.407 2.407 0 0 1-2.521 1.522z" class="cart-visa2" data-name="Path 1361" transform="translate(-193.509 -108.74)"/></g></g></svg>